#Comment line ignore any data following # character 
#Hierarchical Translation and Rotation (.htr) file 
[Header]	
#Header keywords are followed by a single value 
FileType HTR		#Single word string
DataType HTRS		#Translation followed by rotation and scale data
FileVersion 1		#integer
NumSegments 84		#integer
NumFrames 2		#integer
DataFrameRate 30		#integer, data frame rate in this file
EulerRotationOrder ZYX
CalibrationUnits mm
RotationUnits Degrees
GlobalAxisofGravity Y
BoneLengthAxis Y
ScaleFactor 1.00
[SegmentNames&Hierarchy]
#CHILD	PARENT
MASTER GLOBAL
root MASTER
chest root
L_mid_tent01 root
R_mid_tent01 root
spine01 root
Bip01_Neck chest
L_humerus chest
R_humerus chest
weapon_bone chest
Bip01_Head Bip01_Neck
eye_left_bone Bip01_Head
eye_right_bone Bip01_Head
L_forearm L_humerus
L_front_hand L_forearm
L_weapon_bone L_forearm
L_front_hand01_01 L_front_hand
L_front_hand02_01 L_front_hand
L_front_hand03_01 L_front_hand
L_front_hand01_02 L_front_hand01_01
L_front_hand02_02 L_front_hand02_01
L_front_hand03_02 L_front_hand03_01
R_forearm R_humerus
R_front_hand R_forearm
R_weapon_bone R_forearm
R_front_hand01_01 R_front_hand
R_front_hand02_01 R_front_hand
R_front_hand03_01 R_front_hand
R_front_hand01_02 R_front_hand01_01
R_front_hand02_02 R_front_hand02_01
R_front_hand03_02 R_front_hand03_01
null_rope01_connect L_mid_tent01
Rope1_Seg01 null_rope01_connect
Rope1_Seg02 Rope1_Seg01
Rope1_Seg03 Rope1_Seg02
Rope1_Seg04 Rope1_Seg03
Rope1_Seg05 Rope1_Seg04
Rope1_Seg06 Rope1_Seg05
Rope1_Seg07 Rope1_Seg06
Rope1_Seg09 Rope1_Seg07
L_mid_hand01 Rope1_Seg09
L_mid_hand02 Rope1_Seg09
L_mid_hand03 Rope1_Seg09
null_rope02_connect R_mid_tent01
Rope2_Seg01 null_rope02_connect
Rope2_Seg02 Rope2_Seg01
Rope2_Seg03 Rope2_Seg02
Rope2_Seg04 Rope2_Seg03
Rope2_Seg05 Rope2_Seg04
Rope2_Seg06 Rope2_Seg05
Rope2_Seg07 Rope2_Seg06
Rope2_Seg09 Rope2_Seg07
R_mid_hand01 Rope2_Seg09
R_mid_hand02 Rope2_Seg09
R_mid_hand03 Rope2_Seg09
spine02 spine01
spine03 spine02
pelvis spine03
null_rope03_connect pelvis
null_rope04_connect pelvis
Rope3_Seg01 null_rope03_connect
Rope3_Seg02 Rope3_Seg01
Rope3_Seg03 Rope3_Seg02
Rope3_Seg04 Rope3_Seg03
Rope3_Seg05 Rope3_Seg04
Rope3_Seg06 Rope3_Seg05
Rope3_Seg07 Rope3_Seg06
Rope3_Seg08 Rope3_Seg07
Rope3_Seg09 Rope3_Seg08
R_rear_hand01 Rope3_Seg09
R_rear_hand02 Rope3_Seg09
R_rear_hand03 Rope3_Seg09
Rope4_Seg01 null_rope04_connect
Rope4_Seg02 Rope4_Seg01
Rope4_Seg03 Rope4_Seg02
Rope4_Seg04 Rope4_Seg03
Rope4_Seg05 Rope4_Seg04
Rope4_Seg06 Rope4_Seg05
Rope4_Seg07 Rope4_Seg06
Rope4_Seg08 Rope4_Seg07
Rope4_Seg09 Rope4_Seg08
L_rear_hand01 Rope4_Seg09
L_rear_hand02 Rope4_Seg09
L_rear_hand03 Rope4_Seg09
[BasePosition]
#SegmentName Tx, Ty, Tz, Rx, Ry, Rz, BoneLength
MASTER 0.000000 0.000000 0.000000 -90.000000 0.000000 0.000000 10.000000 
root 0.000000 0.000000 0.000000 0.000000 0.000000 0.000000 10.000000 
chest 0.000000 0.000000 0.000000 0.000000 0.000000 0.000000 10.000000 
L_mid_tent01 0.000000 0.000000 0.000000 0.000000 0.000000 0.000000 10.000000 
R_mid_tent01 0.000000 0.000000 0.000000 0.000000 0.000000 0.000000 10.000000 
spine01 0.000000 0.000000 0.000000 0.000000 0.000000 0.000000 10.000000 
Bip01_Neck 0.000000 0.000000 0.000000 0.000000 0.000000 0.000000 10.000000 
L_humerus 0.000000 0.000000 0.000000 0.000000 0.000000 0.000000 10.000000 
R_humerus 0.000000 0.000000 0.000000 0.000000 0.000000 0.000000 10.000000 
weapon_bone 0.000000 0.000000 0.000000 0.000000 0.000000 0.000000 10.000000 
Bip01_Head 0.000000 0.000000 0.000000 0.000000 0.000000 0.000000 10.000000 
eye_left_bone 0.000000 0.000000 0.000000 0.000000 0.000000 0.000000 10.000000 
eye_right_bone 0.000000 0.000000 0.000000 0.000000 0.000000 0.000000 10.000000 
L_forearm 0.000000 0.000000 0.000000 0.000000 0.000000 0.000000 10.000000 
L_front_hand 0.000000 0.000000 0.000000 0.000000 0.000000 0.000000 10.000000 
L_weapon_bone 0.000000 0.000000 0.000000 0.000000 0.000000 0.000000 10.000000 
L_front_hand01_01 0.000000 0.000000 0.000000 0.000000 0.000000 0.000000 10.000000 
L_front_hand02_01 0.000000 0.000000 0.000000 0.000000 0.000000 0.000000 10.000000 
L_front_hand03_01 0.000000 0.000000 0.000000 0.000000 0.000000 0.000000 10.000000 
L_front_hand01_02 0.000000 0.000000 0.000000 0.000000 0.000000 0.000000 10.000000 
L_front_hand02_02 0.000000 0.000000 0.000000 0.000000 0.000000 0.000000 10.000000 
L_front_hand03_02 0.000000 0.000000 0.000000 0.000000 0.000000 0.000000 10.000000 
R_forearm 0.000000 0.000000 0.000000 0.000000 0.000000 0.000000 10.000000 
R_front_hand 0.000000 0.000000 0.000000 0.000000 0.000000 0.000000 10.000000 
R_weapon_bone 0.000000 0.000000 0.000000 0.000000 0.000000 0.000000 10.000000 
R_front_hand01_01 0.000000 0.000000 0.000000 0.000000 0.000000 0.000000 10.000000 
R_front_hand02_01 0.000000 0.000000 0.000000 0.000000 0.000000 0.000000 10.000000 
R_front_hand03_01 0.000000 0.000000 0.000000 0.000000 0.000000 0.000000 10.000000 
R_front_hand01_02 0.000000 0.000000 0.000000 0.000000 0.000000 0.000000 10.000000 
R_front_hand02_02 0.000000 0.000000 0.000000 0.000000 0.000000 0.000000 10.000000 
R_front_hand03_02 0.000000 0.000000 0.000000 0.000000 0.000000 0.000000 10.000000 
null_rope01_connect 0.000000 0.000000 0.000000 0.000000 0.000000 0.000000 10.000000 
Rope1_Seg01 0.000000 0.000000 0.000000 0.000000 0.000000 0.000000 10.000000 
Rope1_Seg02 0.000000 0.000000 0.000000 0.000000 0.000000 0.000000 10.000000 
Rope1_Seg03 0.000000 0.000000 0.000000 0.000000 0.000000 0.000000 10.000000 
Rope1_Seg04 0.000000 0.000000 0.000000 0.000000 0.000000 0.000000 10.000000 
Rope1_Seg05 0.000000 0.000000 0.000000 0.000000 0.000000 0.000000 10.000000 
Rope1_Seg06 0.000000 0.000000 0.000000 0.000000 0.000000 0.000000 10.000000 
Rope1_Seg07 0.000000 0.000000 0.000000 0.000000 0.000000 0.000000 10.000000 
Rope1_Seg09 0.000000 0.000000 0.000000 0.000000 0.000000 0.000000 10.000000 
L_mid_hand01 0.000000 0.000000 0.000000 0.000000 0.000000 0.000000 10.000000 
L_mid_hand02 0.000000 0.000000 0.000000 0.000000 0.000000 0.000000 10.000000 
L_mid_hand03 0.000000 0.000000 0.000000 0.000000 0.000000 0.000000 10.000000 
null_rope02_connect 0.000000 0.000000 0.000000 0.000000 0.000000 0.000000 10.000000 
Rope2_Seg01 0.000000 0.000000 0.000000 0.000000 0.000000 0.000000 10.000000 
Rope2_Seg02 0.000000 0.000000 0.000000 0.000000 0.000000 0.000000 10.000000 
Rope2_Seg03 0.000000 0.000000 0.000000 0.000000 0.000000 0.000000 10.000000 
Rope2_Seg04 0.000000 0.000000 0.000000 0.000000 0.000000 0.000000 10.000000 
Rope2_Seg05 0.000000 0.000000 0.000000 0.000000 0.000000 0.000000 10.000000 
Rope2_Seg06 0.000000 0.000000 0.000000 0.000000 0.000000 0.000000 10.000000 
Rope2_Seg07 0.000000 0.000000 0.000000 0.000000 0.000000 0.000000 10.000000 
Rope2_Seg09 0.000000 0.000000 0.000000 0.000000 0.000000 0.000000 10.000000 
R_mid_hand01 0.000000 0.000000 0.000000 0.000000 0.000000 0.000000 10.000000 
R_mid_hand02 0.000000 0.000000 0.000000 0.000000 0.000000 0.000000 10.000000 
R_mid_hand03 0.000000 0.000000 0.000000 0.000000 0.000000 0.000000 10.000000 
spine02 0.000000 0.000000 0.000000 0.000000 0.000000 0.000000 10.000000 
spine03 0.000000 0.000000 0.000000 0.000000 0.000000 0.000000 10.000000 
pelvis 0.000000 0.000000 0.000000 0.000000 0.000000 0.000000 10.000000 
null_rope03_connect 0.000000 0.000000 0.000000 0.000000 0.000000 0.000000 10.000000 
null_rope04_connect 0.000000 0.000000 0.000000 0.000000 0.000000 0.000000 10.000000 
Rope3_Seg01 0.000000 0.000000 0.000000 0.000000 0.000000 0.000000 10.000000 
Rope3_Seg02 0.000000 0.000000 0.000000 0.000000 0.000000 0.000000 10.000000 
Rope3_Seg03 0.000000 0.000000 0.000000 0.000000 0.000000 0.000000 10.000000 
Rope3_Seg04 0.000000 0.000000 0.000000 0.000000 0.000000 0.000000 10.000000 
Rope3_Seg05 0.000000 0.000000 0.000000 0.000000 0.000000 0.000000 10.000000 
Rope3_Seg06 0.000000 0.000000 0.000000 0.000000 0.000000 0.000000 10.000000 
Rope3_Seg07 0.000000 0.000000 0.000000 0.000000 0.000000 0.000000 10.000000 
Rope3_Seg08 0.000000 0.000000 0.000000 0.000000 0.000000 0.000000 10.000000 
Rope3_Seg09 0.000000 0.000000 0.000000 0.000000 0.000000 0.000000 10.000000 
R_rear_hand01 0.000000 0.000000 0.000000 0.000000 0.000000 0.000000 10.000000 
R_rear_hand02 0.000000 0.000000 0.000000 0.000000 0.000000 0.000000 10.000000 
R_rear_hand03 0.000000 0.000000 0.000000 0.000000 0.000000 0.000000 10.000000 
Rope4_Seg01 0.000000 0.000000 0.000000 0.000000 0.000000 0.000000 10.000000 
Rope4_Seg02 0.000000 0.000000 0.000000 0.000000 0.000000 0.000000 10.000000 
Rope4_Seg03 0.000000 0.000000 0.000000 0.000000 0.000000 0.000000 10.000000 
Rope4_Seg04 0.000000 0.000000 0.000000 0.000000 0.000000 0.000000 10.000000 
Rope4_Seg05 0.000000 0.000000 0.000000 0.000000 0.000000 0.000000 10.000000 
Rope4_Seg06 0.000000 0.000000 0.000000 0.000000 0.000000 0.000000 10.000000 
Rope4_Seg07 0.000000 0.000000 0.000000 0.000000 0.000000 0.000000 10.000000 
Rope4_Seg08 0.000000 0.000000 0.000000 0.000000 0.000000 0.000000 10.000000 
Rope4_Seg09 0.000000 0.000000 0.000000 0.000000 0.000000 0.000000 10.000000 
L_rear_hand01 0.000000 0.000000 0.000000 0.000000 0.000000 0.000000 10.000000 
L_rear_hand02 0.000000 0.000000 0.000000 0.000000 0.000000 0.000000 10.000000 
L_rear_hand03 0.000000 0.000000 0.000000 0.000000 0.000000 0.000000 10.000000 
#Beginning of Data. Separated by tabs
#Fr	Tx	Ty	Tz	Rx	Ry	Rz	SF
[MASTER]
14 1356.141235 -2467.732422 0.000000 0.000230 -0.002336 -101.251450 2815.816406
15 1404.234375 -2677.737061 0.000000 0.000259 -0.002333 -102.647423 3023.598633
[root]
14 -62.822105 4.060865 1000.991211 -75.358063 -8.031165 -179.828217 1002.968872
15 -62.821983 13.492405 1005.064148 -76.271263 -7.722405 -179.822510 1007.115967
[chest]
14 -84.512650 -34.090519 0.000000 -9.447383 4.988610 155.420425 91.129311
15 -84.512650 -34.090519 0.000000 -9.144487 4.802458 155.465729 91.129311
[L_mid_tent01]
14 23.228750 24.509907 -223.761200 -13.771253 28.420187 -15.117293 226.294907
15 23.228750 24.509907 -223.761200 -12.032015 16.017525 -10.740369 226.294907
[R_mid_tent01]
14 23.228794 24.509907 226.238495 -159.212387 17.598213 -12.603559 228.744751
15 23.228794 24.509907 226.238495 -160.481613 9.807809 -14.858398 228.744751
[spine01]
14 -0.361383 -0.195265 0.000000 0.001815 0.001488 11.320962 0.410763
15 -0.361383 -0.195265 0.000000 0.001815 0.001488 11.320962 0.410763
[Bip01_Neck]
14 165.484543 71.581718 0.000119 175.896118 1.177290 24.871183 180.302734
15 165.484543 71.581718 0.000119 175.896118 1.177290 24.871183 180.302734
[L_humerus]
14 -13.983130 -135.272980 -120.471481 164.464462 21.126627 -108.000763 181.680161
15 -13.983130 -135.272980 -120.471481 163.592484 24.449892 -108.062553 181.680161
[R_humerus]
14 -13.983309 -135.273102 125.287651 -166.269318 -11.610606 -103.254189 184.909012
15 -13.983309 -135.273102 125.287651 -165.924225 -15.106263 -103.085594 184.909012
[weapon_bone]
14 235.964890 -300.705902 0.000000 0.000000 -89.951546 -128.212341 382.234833
15 235.964890 -300.705902 0.000000 0.000000 -89.951546 -128.212341 382.234833
[Bip01_Head]
14 201.313766 211.516785 15.929725 -18.336243 5.440773 -71.830940 292.438629
15 201.313766 211.516785 15.929725 -17.734093 5.173189 -71.118484 292.438629
[eye_left_bone]
14 -24.626970 125.451866 -64.772606 0.000000 -90.000000 -99.840431 143.318359
15 -24.626970 125.451866 -64.772606 0.000000 -90.000000 -99.840431 143.318359
[eye_right_bone]
14 -24.626970 125.451866 64.327362 0.000000 -89.965736 80.156380 143.117676
15 -24.626970 125.451866 64.327362 0.000000 -89.965736 80.156380 143.117676
[L_forearm]
14 322.776093 0.000000 -0.000119 0.000357 -0.002320 -107.506004 322.776093
15 322.776093 0.000000 -0.000119 0.000357 -0.002320 -107.505997 322.776093
[L_front_hand]
14 241.149185 -0.042021 -3.300071 -179.431961 -2.195943 -5.942919 241.171753
15 241.149185 -0.042021 -3.300071 -179.431961 -2.195943 -5.942919 241.171753
[L_weapon_bone]
14 156.183838 0.000000 0.000000 0.000014 0.000007 0.000001 156.183838
15 156.183838 0.000000 0.000000 0.000014 0.000007 0.000001 156.183838
[L_front_hand01_01]
14 86.095154 20.947098 -0.655860 0.139491 -0.584553 24.181786 88.609184
15 86.095154 20.947098 -0.655860 0.139491 -0.584553 24.181791 88.609184
[L_front_hand02_01]
14 86.935165 -11.437475 24.513514 119.190460 -21.905655 -12.119137 91.046425
15 86.935165 -11.437475 24.513514 119.190460 -21.905661 -12.119137 91.046425
[L_front_hand03_01]
14 86.637497 -14.123976 -20.424902 -120.437630 20.554031 -14.327168 90.126129
15 86.637497 -14.123976 -20.424902 -120.437630 20.554037 -14.327168 90.126129
[L_front_hand01_02]
14 71.020905 -0.000179 0.000030 0.000334 -0.002323 -106.379684 71.020905
15 71.020905 -0.000179 0.000030 0.000334 -0.002323 -106.379684 71.020905
[L_front_hand02_02]
14 71.020927 -0.000119 0.000060 0.000334 -0.002323 -106.379684 71.020927
15 71.020927 -0.000119 0.000060 0.000334 -0.002323 -106.379684 71.020927
[L_front_hand03_02]
14 71.020905 -0.000060 0.000060 0.000334 -0.002323 -106.379684 71.020905
15 71.020905 -0.000060 0.000060 0.000334 -0.002323 -106.379684 71.020905
[R_forearm]
14 322.776428 -0.000060 0.000030 0.196737 0.083011 -114.368637 322.776428
15 322.776428 -0.000060 0.000030 0.196737 0.083011 -114.368637 322.776428
[R_front_hand]
14 238.847015 -0.006795 2.210259 -0.341870 1.692705 -0.151779 238.857239
15 238.847015 -0.006795 2.210259 -0.341870 1.692706 -0.151780 238.857239
[R_weapon_bone]
14 155.664093 0.002503 -0.000030 0.003487 0.001180 -90.988930 155.664078
15 155.664093 0.002503 -0.000030 0.003487 0.001180 -90.988930 155.664078
[R_front_hand01_01]
14 87.624611 14.231146 22.918642 -119.218056 -22.033409 12.303375 91.683487
15 87.624611 14.231146 22.918642 -119.218056 -22.033411 12.303375 91.683487
[R_front_hand02_01]
14 89.356956 14.367283 -19.491137 120.545532 20.947184 14.823009 92.579636
15 89.356956 14.367283 -19.491137 120.545532 20.947184 14.823009 92.579636
[R_front_hand03_01]
14 87.286232 -22.307278 -0.143439 -0.231628 -0.392922 -24.567768 90.091743
15 87.286232 -22.307278 -0.143439 -0.231628 -0.392922 -24.567772 90.091743
[R_front_hand01_02]
14 71.020905 0.000060 0.000119 0.002323 -0.000334 106.381714 71.020905
15 71.020905 0.000060 0.000119 0.002323 -0.000334 106.381714 71.020905
[R_front_hand02_02]
14 71.020844 -0.000030 -0.000119 0.002323 -0.000334 106.381714 71.020836
15 71.020844 -0.000030 -0.000119 0.002323 -0.000334 106.381714 71.020836
[R_front_hand03_02]
14 71.020905 0.000000 0.000030 0.002323 -0.000334 106.381714 71.020905
15 71.020905 0.000000 0.000030 0.002323 -0.000334 106.381714 71.020905
[null_rope01_connect]
14 328.732483 0.000000 -0.000238 74.346062 48.105423 1.101798 328.732483
15 328.732483 0.000000 -0.000238 76.976501 59.833920 2.338065 328.732483
[Rope1_Seg01]
14 0.000077 0.000000 -0.000043 57.896626 -25.552572 51.754982 0.000088
15 0.000081 0.000000 -0.000041 59.554688 -26.827486 50.143330 0.000091
[Rope1_Seg02]
14 139.999863 -0.000179 0.000000 0.000298 0.372591 -0.418727 139.999863
15 139.999863 -0.000179 0.000000 0.848821 -0.106100 -1.477971 139.999863
[Rope1_Seg03]
14 139.999924 0.000060 -0.000060 -0.000777 0.501176 -0.557211 139.999924
15 139.999924 0.000060 -0.000060 1.151917 -0.162317 -1.894351 139.999924
[Rope1_Seg04]
14 139.999924 -0.000060 -0.000119 -0.003387 0.718780 -0.804531 139.999924
15 139.999924 -0.000060 -0.000119 2.890346 -1.272671 -3.439826 139.999924
[Rope1_Seg05]
14 139.999832 0.000119 -0.000060 12.364035 -8.948763 -9.489753 139.999832
15 139.999832 0.000119 -0.000060 16.482843 -11.856802 -12.488001 139.999832
[Rope1_Seg06]
14 139.999954 0.000119 -0.000060 2.347992 -0.370308 -3.340508 139.999954
15 139.999954 0.000119 -0.000060 -3.672016 5.791142 -0.852997 139.999954
[Rope1_Seg07]
14 139.999985 0.000060 0.000000 -19.439741 68.351959 64.275299 139.999985
15 139.999985 0.000060 0.000000 -27.434200 65.694130 55.619770 139.999985
[Rope1_Seg09]
14 121.602913 0.000119 -0.000089 -89.793175 -1.359789 0.847147 121.602913
15 121.602913 0.000119 -0.000089 -89.793175 -1.359789 0.847147 121.602913
[L_mid_hand01]
14 103.859421 1.038730 8.195221 106.855484 -31.239275 -9.461397 104.187431
15 103.859421 1.038730 8.195221 106.855484 -31.239275 -9.461397 104.187431
[L_mid_hand02]
14 105.572853 -4.139662 -10.864139 -142.331345 25.752670 -28.774628 106.211075
15 105.572853 -4.139662 -10.864139 -142.331345 25.752670 -28.774628 106.211075
[L_mid_hand03]
14 104.641464 17.579376 -3.913581 -16.122810 9.734291 34.223598 106.179977
15 104.641464 17.579376 -3.913581 -16.122810 9.734291 34.223598 106.179977
[null_rope02_connect]
14 328.732849 0.000179 -0.000119 -158.426254 -46.366047 42.051937 328.732849
15 328.732849 0.000179 -0.000119 -163.807312 -52.973679 46.065285 328.732849
[Rope2_Seg01]
14 -0.000126 -0.000086 -0.000086 -70.028488 -71.009850 -121.347000 0.000175
15 -0.000127 -0.000081 -0.000081 -68.707954 -56.706131 -116.137177 0.000172
[Rope2_Seg02]
14 139.999741 -0.000060 -0.000119 -3.177394 7.313762 -13.003997 139.999756
15 139.999741 -0.000060 -0.000119 -3.987072 2.893167 -12.269854 139.999756
[Rope2_Seg03]
14 140.000107 0.000030 0.000000 -1.111571 15.072002 -48.679562 140.000107
15 140.000107 0.000030 0.000000 -2.762596 3.739802 -61.946171 140.000107
[Rope2_Seg04]
14 139.999802 0.000000 -0.000060 23.491779 13.111578 -40.167583 139.999802
15 139.999802 0.000000 -0.000060 17.145121 10.250875 -44.023071 139.999802
[Rope2_Seg05]
14 139.999985 -0.000060 0.000119 -54.721531 36.943661 6.329665 139.999985
15 139.999985 -0.000060 0.000119 -45.899281 42.230534 3.114564 139.999985
[Rope2_Seg06]
14 139.999893 -0.000030 -0.000119 -36.046619 6.411735 16.658012 139.999893
15 139.999893 -0.000030 -0.000119 -42.145416 11.588542 14.216495 139.999893
[Rope2_Seg07]
14 139.999893 0.000060 -0.000060 -7.493211 -0.445363 4.988690 139.999893
15 139.999893 0.000060 -0.000060 -10.704352 0.409568 5.623439 139.999893
[Rope2_Seg09]
14 121.338966 0.000089 -0.000060 33.793236 -1.359788 -0.847141 121.338966
15 121.338966 0.000089 -0.000060 33.793236 -1.359788 -0.847141 121.338966
[R_mid_hand01]
14 104.680779 11.144459 -10.335981 -41.523792 25.424656 28.595957 105.778534
15 104.680779 11.144459 -10.335981 -41.523792 25.424656 28.595957 105.778534
[R_mid_hand02]
14 104.070427 2.443552 8.231699 72.847389 -32.746803 10.013901 104.424065
15 104.070427 2.443552 8.231699 72.847389 -32.746803 10.013901 104.424065
[R_mid_hand03]
14 106.028137 -11.221827 -5.996406 -167.901306 10.259192 -37.009720 106.788818
15 106.028137 -11.221827 -5.996406 -167.901306 10.259192 -37.009720 106.788818
[spine02]
14 129.756927 0.001550 0.000119 0.001147 -1.797837 -7.854275 129.756927
15 129.756927 0.001550 0.000119 0.001147 -1.797837 -7.854275 129.756927
[spine03]
14 79.115631 0.000000 -0.000119 1.459971 -2.848092 23.765963 79.115631
15 79.115631 0.000000 -0.000119 1.459971 -2.848092 23.765965 79.115631
[pelvis]
14 169.435242 0.051022 0.000000 -0.000005 0.000003 -4.322055 169.435257
15 169.435242 0.051022 0.000000 -0.000005 0.000003 -4.322055 169.435257
[null_rope03_connect]
14 -1.257226 -2.466202 137.391083 15.318010 72.728706 -87.530724 137.418976
15 -1.257226 -2.466202 137.391083 21.289890 73.035736 -81.794556 137.418976
[null_rope04_connect]
14 -1.259640 -2.480268 -137.844437 15.318010 72.728706 -87.530724 137.872513
15 -1.259640 -2.480268 -137.844437 21.289890 73.035736 -81.794556 137.872513
[Rope3_Seg01]
14 0.000077 0.000000 -0.000043 -110.820999 -18.347519 56.075977 0.000088
15 0.000081 0.000000 -0.000041 -110.657196 -16.130596 54.000736 0.000091
[Rope3_Seg02]
14 139.999924 -0.000119 0.000060 -3.338408 -6.199868 0.207284 139.999924
15 139.999924 -0.000119 0.000060 -3.056721 -5.322585 -0.143482 139.999924
[Rope3_Seg03]
14 139.999924 -0.000119 0.000119 -3.648437 -8.379801 -0.207268 139.999924
15 139.999924 -0.000119 0.000119 -3.308973 -6.960694 -0.565355 139.999924
[Rope3_Seg04]
14 139.999924 0.000119 0.000000 -3.632473 -11.752350 -1.121657 139.999924
15 139.999924 0.000119 0.000000 -3.401916 -9.442219 -1.400392 139.999924
[Rope3_Seg05]
14 139.999924 -0.000238 0.000060 -2.052042 -20.396709 -4.068055 139.999924
15 139.999924 -0.000238 0.000060 -2.626676 -15.481180 -3.995690 139.999924
[Rope3_Seg06]
14 139.999893 -0.000119 -0.000060 0.547022 -10.421388 -1.731842 139.999893
15 139.999893 -0.000119 -0.000060 -0.382258 -10.164025 -2.104480 139.999893
[Rope3_Seg07]
14 139.999771 0.000060 -0.000119 0.583439 4.291781 2.973585 139.999771
15 139.999771 0.000060 -0.000119 0.364665 -0.406197 2.255771 139.999771
[Rope3_Seg08]
14 139.999985 -0.000060 0.000000 0.770717 4.298544 2.683634 139.999985
15 139.999985 -0.000060 0.000000 0.366931 -0.814308 1.497684 139.999985
[Rope3_Seg09]
14 90.185997 -0.000179 -0.000060 89.793228 -1.359877 -0.847183 90.185997
15 90.185997 -0.000179 -0.000060 89.793228 -1.359877 -0.847183 90.185997
[R_rear_hand01]
14 103.366196 -6.073594 -10.757982 -161.551193 16.666374 -30.088671 104.101845
15 103.366196 -6.073594 -10.757982 -161.551193 16.666374 -30.088671 104.101845
[R_rear_hand02]
14 100.509819 12.039542 -7.992327 -34.280552 19.289745 28.875523 101.543350
15 100.509819 12.039542 -7.992327 -34.280552 19.289745 28.875523 101.543350
[R_rear_hand03]
14 101.539970 5.215704 5.435467 83.366440 -30.933914 7.284830 101.819031
15 101.539970 5.215704 5.435467 83.366440 -30.933914 7.284830 101.819031
[Rope4_Seg01]
14 0.000015 -0.000221 -0.000153 89.999855 -37.192616 20.418926 0.000269
15 0.000015 -0.000244 -0.000153 83.257835 -32.229889 20.599804 0.000288
[Rope4_Seg02]
14 139.999985 0.000060 0.000119 -8.278365 12.274570 -2.356244 139.999985
15 139.999985 0.000060 0.000119 -7.474449 14.367270 -0.622016 139.999985
[Rope4_Seg03]
14 139.999924 0.000000 -0.000238 -6.193782 18.849657 -0.911951 139.999924
15 139.999924 0.000000 -0.000238 -4.019888 18.179533 1.638703 139.999924
[Rope4_Seg04]
14 139.999985 0.000000 0.000119 -1.825780 25.451485 2.485113 139.999985
15 139.999985 0.000000 0.000119 -0.540027 20.451097 4.690001 139.999985
[Rope4_Seg05]
14 139.999802 -0.000060 -0.000119 1.716762 21.640766 3.910844 139.999802
15 139.999802 -0.000060 -0.000119 0.639220 14.239200 3.785412 139.999802
[Rope4_Seg06]
14 139.999924 0.000000 0.000060 1.356316 6.219081 -0.593352 139.999924
15 139.999924 0.000000 0.000060 0.644462 5.249204 -0.557963 139.999924
[Rope4_Seg07]
14 139.999802 0.000000 0.000000 1.224292 -1.271232 -3.598557 139.999802
15 139.999802 0.000000 0.000000 1.012280 0.790672 -4.156802 139.999802
[Rope4_Seg08]
14 139.999924 0.000000 0.000119 -0.405840 -6.113564 -5.922650 139.999924
15 139.999924 0.000000 0.000119 -0.570575 -0.257599 -5.330509 139.999924
[Rope4_Seg09]
14 90.185791 0.000060 0.000060 -135.617828 2.228885 0.850567 90.185791
15 90.185791 0.000060 0.000060 -135.617828 2.228885 0.850567 90.185791
[L_rear_hand01]
14 101.696655 -8.392275 -7.654577 -34.454281 -18.946800 151.655121 102.329041
15 101.696655 -8.392275 -7.654577 -34.454281 -18.946800 151.655121 102.329041
[L_rear_hand02]
14 102.726799 -1.568258 5.773216 83.407906 30.330435 172.796509 102.900848
15 102.726799 -1.568258 5.773216 83.407906 30.330435 172.796509 102.900848
[L_rear_hand03]
14 104.552910 9.721220 -10.420293 -161.379868 -16.473232 -150.512238 105.519653
15 104.552910 9.721220 -10.420293 -161.379868 -16.473232 -150.512238 105.519653
